# xmcd
#
# Track frame offsets: 
#        150
#        12292
#        26433
#        39866
#        52609
#        66657
#        80284
#        93618
#        106599
#        118918
#        131682
#        144094
#        153938
#        166946
#        180219
#        192329
#        205736
#        222553
#        238107
#        250395
#        260462
#        274372
#        288949
#        300748
#        314577
#
# Disc length: 4316 seconds
#
# Revision: 0
# Processed by: cddbd v1.5.1PL2 Copyright (c) Steve Scherf et al.
# Submitted via: ExactAudioCopy v0.95b4
#
DISCID=5d10da19
DTITLE=Red Foley - Hillbilly Fever [CD2)
DYEAR=1900
DGENRE=
TTITLE0=Tennessee Saturday Night
TTITLE1=Too Many Blues
TTITLE2=Blues In My Heart
TTITLE3=I'm Picking Up Pieces Of A Broken Heart
TTITLE4=I'm Waltzing With A Broken Heart
TTITLE5=Just A Man And His Dog
TTITLE6=Ruby Red Lips
TTITLE7=Television
TTITLE8=Tit For Tat
TTITLE9=Two Cents Three Eggs And A Postcard
TTITLE10=The Last Thing I Want Is Your Pity
TTITLE11=Don't Be Ashamed Of Your Age
TTITLE12=I Wish I Had a Nickel
TTITLE13=Candy Kisses
TTITLE14=Careless Kisses
TTITLE15=I'm Throwing Rice
TTITLE16=Steal Away
TTITLE17=Tennessee Polka
TTITLE18=Tennessee Border
TTITLE19=When God Dips His Love In My Heart
TTITLE20=I Gotta Have My Baby Back
TTITLE21=Sunday Down In Tennessee
TTITLE22=Tennessee Border #2 (with Ernest Tubb)
TTITLE23=Goodnight Irene
TTITLE24=Choc'late Ice Cream Cone
EXTD=
EXTT0=
EXTT1=
EXTT2=
EXTT3=
EXTT4=
EXTT5=
EXTT6=
EXTT7=
EXTT8=
EXTT9=
EXTT10=
EXTT11=
EXTT12=
EXTT13=
EXTT14=
EXTT15=
EXTT16=
EXTT17=
EXTT18=
EXTT19=
EXTT20=
EXTT21=
EXTT22=
EXTT23=
EXTT24=
PLAYORDER=
